<?xml version="1.0" encoding="UTF-8" standalone="no"?>
<svg
   xmlns:dc="http://purl.org/dc/elements/1.1/"
   xmlns:cc="http://creativecommons.org/ns#"
   xmlns:rdf="http://www.w3.org/1999/02/22-rdf-syntax-ns#"
   xmlns:svg="http://www.w3.org/2000/svg"
   xmlns="http://www.w3.org/2000/svg"
   xmlns:sodipodi="http://sodipodi.sourceforge.net/DTD/sodipodi-0.dtd"
   xmlns:inkscape="http://www.inkscape.org/namespaces/inkscape"
   inkscape:version="1.0 (4035a4fb49, 2020-05-01)"
   sodipodi:docname="calculator.svg"
   id="svg10"
   viewBox="0 0 18375 21000"
   style="shape-rendering:geometricPrecision; text-rendering:geometricPrecision; image-rendering:optimizeQuality; fill-rule:evenodd; clip-rule:evenodd"
   version="1.1"
   height="210mm"
   width="183.75mm"
   xml:space="preserve"><metadata
   id="metadata14"><rdf:RDF><cc:Work
       rdf:about=""><dc:format>image/svg+xml</dc:format><dc:type
         rdf:resource="http://purl.org/dc/dcmitype/StillImage" /></cc:Work></rdf:RDF></metadata><sodipodi:namedview
   inkscape:current-layer="svg10"
   inkscape:window-maximized="1"
   inkscape:window-y="-8"
   inkscape:window-x="-8"
   inkscape:cy="845.78806"
   inkscape:cx="304.64104"
   inkscape:zoom="0.85674603"
   showgrid="false"
   id="namedview12"
   inkscape:window-height="847"
   inkscape:window-width="1440"
   inkscape:pageshadow="2"
   inkscape:pageopacity="0"
   guidetolerance="10"
   gridtolerance="10"
   objecttolerance="10"
   borderopacity="1"
   bordercolor="#666666"
   pagecolor="#ffffff" />
 <defs
   id="defs4">
  <style
   id="style2"
   type="text/css">
   <![CDATA[
    .fil0 {fill:black}
   ]]>
  </style>
 </defs>
 <g
   style="fill:#003067;fill-opacity:1"
   id="Vrstva_x0020_1">
  <metadata
   id="CorelCorpID_0Corel-Layer" />
  <path
   style="fill:#003067;fill-opacity:1"
   id="path7"
   d="M-0 0l0 21000 18375 0 0 -21000 -18375 0zm2625 2625.01l13125 0 0 5249.99 -13125 0 0 -5249.99zm2625 15749.99l-2625 0 0 -2625 2625 0 0 2625zm0 -5250l-2625 0 0 -2625 2625 0 0 2625zm5250 5250l-2625 0 0 -2625 2625 0 0 2625zm0 -5250l-2625 0 0 -2625 2625 0 0 2625zm5250 5250l-2625 0 0 -7875 2625 0 0 7875z"
   class="fil0" />
 </g>
</svg>
