<?xml version="1.0" encoding="UTF-8" standalone="no"?>
<svg
   xmlns:dc="http://purl.org/dc/elements/1.1/"
   xmlns:cc="http://creativecommons.org/ns#"
   xmlns:rdf="http://www.w3.org/1999/02/22-rdf-syntax-ns#"
   xmlns:svg="http://www.w3.org/2000/svg"
   xmlns="http://www.w3.org/2000/svg"
   xmlns:sodipodi="http://sodipodi.sourceforge.net/DTD/sodipodi-0.dtd"
   xmlns:inkscape="http://www.inkscape.org/namespaces/inkscape"
   inkscape:version="1.0 (4035a4fb49, 2020-05-01)"
   sodipodi:docname="montované haly.svg"
   xml:space="preserve"
   style="enable-background:new 0 0 45.702 45.702;"
   viewBox="0 0 45.702 45.702"
   height="45.702px"
   width="45.702px"
   y="0px"
   x="0px"
   id="Capa_1"
   version="1.1"><metadata
   id="metadata45"><rdf:RDF><cc:Work
       rdf:about=""><dc:format>image/svg+xml</dc:format><dc:type
         rdf:resource="http://purl.org/dc/dcmitype/StillImage" /></cc:Work></rdf:RDF></metadata><defs
   id="defs43" /><sodipodi:namedview
   inkscape:current-layer="Capa_1"
   inkscape:window-maximized="1"
   inkscape:window-y="-8"
   inkscape:window-x="-8"
   inkscape:cy="61.53944"
   inkscape:cx="20.397878"
   inkscape:zoom="14.878999"
   showgrid="false"
   id="namedview41"
   inkscape:window-height="847"
   inkscape:window-width="1440"
   inkscape:pageshadow="2"
   inkscape:pageopacity="0"
   guidetolerance="10"
   gridtolerance="10"
   objecttolerance="10"
   borderopacity="1"
   bordercolor="#666666"
   pagecolor="#ffffff" />
<g
   style="fill:#003067;fill-opacity:1"
   id="g8">
	<g
   style="fill:#003067;fill-opacity:1"
   id="g6">
		<path
   style="fill:#003067;fill-opacity:1"
   id="path2"
   d="M36.226,25.086h-0.023V11.939h0.307c1.18,0,2.137-0.929,2.137-2.108v-7.65c0-1.18-0.957-2.096-2.137-2.096h-5.018    c-1.18,0-2.112,0.916-2.112,2.096v7.649c0,1.179,0.933,2.108,2.112,2.108h0.33v13.146h-0.045c-2.125,0-3.834,1.768-3.834,3.892    v12.921c0,2.125,1.709,3.804,3.834,3.804h4.451c2.123,0,3.854-1.679,3.854-3.804v-12.92    C40.082,26.854,38.351,25.086,36.226,25.086z" />
		<path
   style="fill:#003067;fill-opacity:1"
   id="path4"
   d="M11.494,18.006v24.691c0,1.67,1.338,3.005,3.008,3.005h3.179c1.67,0,3.007-1.335,3.007-3.005v-24.69    c3.448-1.702,5.872-5.275,5.872-9.408c0-3.444-1.959-6.493-4.383-8.399c-0.277-0.218-0.654-0.258-0.97-0.104    c-0.318,0.155-0.519,0.476-0.519,0.829v5.102c0,1.63-1.32,2.896-2.952,2.896h-3.284c-1.632,0-2.958-1.265-2.958-2.896V0.922    c0-0.354-0.199-0.675-0.517-0.83c-0.316-0.154-0.692-0.113-0.97,0.104C7.576,2.103,5.62,5.152,5.62,8.598    C5.62,12.731,7.975,16.304,11.494,18.006z" />
	</g>
</g>
<g
   id="g10">
</g>
<g
   id="g12">
</g>
<g
   id="g14">
</g>
<g
   id="g16">
</g>
<g
   id="g18">
</g>
<g
   id="g20">
</g>
<g
   id="g22">
</g>
<g
   id="g24">
</g>
<g
   id="g26">
</g>
<g
   id="g28">
</g>
<g
   id="g30">
</g>
<g
   id="g32">
</g>
<g
   id="g34">
</g>
<g
   id="g36">
</g>
<g
   id="g38">
</g>
</svg>
