<?xml version="1.0" encoding="UTF-8" standalone="no"?>
<svg
   xmlns:dc="http://purl.org/dc/elements/1.1/"
   xmlns:cc="http://creativecommons.org/ns#"
   xmlns:rdf="http://www.w3.org/1999/02/22-rdf-syntax-ns#"
   xmlns:svg="http://www.w3.org/2000/svg"
   xmlns="http://www.w3.org/2000/svg"
   xmlns:sodipodi="http://sodipodi.sourceforge.net/DTD/sodipodi-0.dtd"
   xmlns:inkscape="http://www.inkscape.org/namespaces/inkscape"
   inkscape:version="1.0 (4035a4fb49, 2020-05-01)"
   sodipodi:docname="stock.svg"
   id="svg10"
   version="1.1"
   width="512"
   viewBox="0 0 24 24"
   height="512"
   enable-background="new 0 0 24 24">
  <metadata
     id="metadata16">
    <rdf:RDF>
      <cc:Work
         rdf:about="">
        <dc:format>image/svg+xml</dc:format>
        <dc:type
           rdf:resource="http://purl.org/dc/dcmitype/StillImage" />
      </cc:Work>
    </rdf:RDF>
  </metadata>
  <defs
     id="defs14" />
  <sodipodi:namedview
     inkscape:current-layer="svg10"
     inkscape:window-maximized="1"
     inkscape:window-y="-8"
     inkscape:window-x="-8"
     inkscape:cy="718.16826"
     inkscape:cx="228.51765"
     inkscape:zoom="1.328125"
     showgrid="false"
     id="namedview12"
     inkscape:window-height="847"
     inkscape:window-width="1440"
     inkscape:pageshadow="2"
     inkscape:pageopacity="0"
     guidetolerance="10"
     gridtolerance="10"
     objecttolerance="10"
     borderopacity="1"
     bordercolor="#666666"
     pagecolor="#ffffff" />
  <path
     style="fill:#003067;fill-opacity:1"
     id="path2"
     d="m23.68 7.88-11.25-7.75c-.26-.17-.6-.17-.86 0l-11.25 7.75c-.2.14-.32.37-.32.62v14.5c0 .55.45 1 1 1h4v-11.25c0-.413.338-.75.75-.75h12.5c.413 0 .75.337.75.75v11.25h4c.55 0 1-.45 1-1v-14.5c0-.25-.12-.48-.32-.62z" />
  <path
     style="fill:#003067;fill-opacity:1"
     id="path4"
     d="m6.5 17.5h11v2.5h-11z" />
  <path
     style="fill:#003067;fill-opacity:1"
     id="path6"
     d="m6.5 21.5h11v2.5h-11z" />
  <path
     style="fill:#003067;fill-opacity:1"
     id="path8"
     d="m6.5 13.5h11v2.5h-11z" />
</svg>
