<?xml version="1.0" encoding="UTF-8" standalone="no"?>
<svg
   xmlns:dc="http://purl.org/dc/elements/1.1/"
   xmlns:cc="http://creativecommons.org/ns#"
   xmlns:rdf="http://www.w3.org/1999/02/22-rdf-syntax-ns#"
   xmlns:svg="http://www.w3.org/2000/svg"
   xmlns="http://www.w3.org/2000/svg"
   xmlns:sodipodi="http://sodipodi.sourceforge.net/DTD/sodipodi-0.dtd"
   xmlns:inkscape="http://www.inkscape.org/namespaces/inkscape"
   inkscape:version="1.0 (4035a4fb49, 2020-05-01)"
   sodipodi:docname="sportovní haly.svg"
   xml:space="preserve"
   style="enable-background:new 0 0 511.985 511.985;"
   viewBox="0 0 511.985 511.985"
   y="0px"
   x="0px"
   id="Capa_1"
   version="1.1"><metadata
   id="metadata49"><rdf:RDF><cc:Work
       rdf:about=""><dc:format>image/svg+xml</dc:format><dc:type
         rdf:resource="http://purl.org/dc/dcmitype/StillImage" /></cc:Work></rdf:RDF></metadata><defs
   id="defs47" /><sodipodi:namedview
   inkscape:current-layer="Capa_1"
   inkscape:window-maximized="1"
   inkscape:window-y="-8"
   inkscape:window-x="-8"
   inkscape:cy="709.63861"
   inkscape:cx="228.51095"
   inkscape:zoom="1.3281639"
   showgrid="false"
   id="namedview45"
   inkscape:window-height="847"
   inkscape:window-width="1440"
   inkscape:pageshadow="2"
   inkscape:pageopacity="0"
   guidetolerance="10"
   gridtolerance="10"
   objecttolerance="10"
   borderopacity="1"
   bordercolor="#666666"
   pagecolor="#ffffff" />
<g
   style="fill:#003067;fill-opacity:1"
   id="g6">
	<g
   style="fill:#003067;fill-opacity:1"
   id="g4">
		<path
   style="fill:#003067;fill-opacity:1"
   id="path2"
   d="M499.455,230.673l-75.616-16.928l-222.976,171.36l-22.816-22.816l228.672-175.712l-6.848-60.384    c-0.832-7.424-6.688-13.28-14.08-14.08l-64.544-7.328l-171.84,228.896l-22.816-22.848L300.223,79.505l-7.36-65.312    c-0.448-4.384-2.784-8.384-6.304-11.008c-3.52-2.624-8-3.712-12.352-2.944l-90.496,16c-5.792,1.024-10.528,5.088-12.416,10.656    L81.983,294.193l-26.592,26.592l135.744,135.744l26.56-26.56l267.296-89.312c5.44-1.824,9.504-6.4,10.624-12.032l16-79.168    C513.375,240.945,507.967,232.593,499.455,230.673z" />
	</g>
</g>
<g
   style="fill:#003067;fill-opacity:1"
   id="g12">
	<g
   style="fill:#003067;fill-opacity:1"
   id="g10">
		<path
   style="fill:#003067;fill-opacity:1"
   id="path8"
   d="M32.767,343.441l-4.672,4.672c-37.408,37.44-37.408,98.304,0,135.744c18.112,18.144,42.24,28.128,67.872,28.128    s49.76-10.016,67.872-28.128l4.672-4.672L32.767,343.441z" />
	</g>
</g>
<g
   id="g14">
</g>
<g
   id="g16">
</g>
<g
   id="g18">
</g>
<g
   id="g20">
</g>
<g
   id="g22">
</g>
<g
   id="g24">
</g>
<g
   id="g26">
</g>
<g
   id="g28">
</g>
<g
   id="g30">
</g>
<g
   id="g32">
</g>
<g
   id="g34">
</g>
<g
   id="g36">
</g>
<g
   id="g38">
</g>
<g
   id="g40">
</g>
<g
   id="g42">
</g>
</svg>
