<?xml version="1.0" encoding="UTF-8" standalone="no"?>
<svg
   xmlns:dc="http://purl.org/dc/elements/1.1/"
   xmlns:cc="http://creativecommons.org/ns#"
   xmlns:rdf="http://www.w3.org/1999/02/22-rdf-syntax-ns#"
   xmlns:svg="http://www.w3.org/2000/svg"
   xmlns="http://www.w3.org/2000/svg"
   xmlns:sodipodi="http://sodipodi.sourceforge.net/DTD/sodipodi-0.dtd"
   xmlns:inkscape="http://www.inkscape.org/namespaces/inkscape"
   inkscape:version="1.0 (4035a4fb49, 2020-05-01)"
   sodipodi:docname="skladové a logistické haly.svg"
   id="svg10"
   version="1.1"
   width="512"
   viewBox="0 0 24 24"
   height="512"
   enable-background="new 0 0 24 24">
  <metadata
     id="metadata16">
    <rdf:RDF>
      <cc:Work
         rdf:about="">
        <dc:format>image/svg+xml</dc:format>
        <dc:type
           rdf:resource="http://purl.org/dc/dcmitype/StillImage" />
      </cc:Work>
    </rdf:RDF>
  </metadata>
  <defs
     id="defs14" />
  <sodipodi:namedview
     inkscape:current-layer="svg10"
     inkscape:window-maximized="1"
     inkscape:window-y="-8"
     inkscape:window-x="-8"
     inkscape:cy="588.38902"
     inkscape:cx="228.51765"
     inkscape:zoom="1.328125"
     showgrid="false"
     id="namedview12"
     inkscape:window-height="847"
     inkscape:window-width="1440"
     inkscape:pageshadow="2"
     inkscape:pageopacity="0"
     guidetolerance="10"
     gridtolerance="10"
     objecttolerance="10"
     borderopacity="1"
     bordercolor="#666666"
     pagecolor="#ffffff" />
  <path
     style="fill:#003067;fill-opacity:1"
     id="path2"
     d="m23.806.104c-.123-.094-.282-.128-.432-.088l-16.374 4.272v-2.788c0-.173-.09-.334-.237-.425-.147-.092-.332-.1-.486-.022l-2 1c-.17.085-.277.258-.277.447v2.57l-3.626.946c-.22.058-.374.256-.374.484v2c0 .155.072.301.194.396.089.068.197.104.306.104.042 0 .084-.005.126-.016l1.374-.359v14.875c0 .276.224.5.5.5h1.5v-12h16v12h1.5c.276 0 .5-.224.5-.5v-20.092l1.626-.424c.22-.058.374-.256.374-.484v-2c0-.155-.072-.301-.194-.396z" />
  <path
     style="fill:#003067;fill-opacity:1"
     id="path4"
     d="m9.25 19v.75c0 .414-.336.75-.75.75s-.75-.336-.75-.75v-.75h-1.75c-.276 0-.5.224-.5.5v4c0 .276.224.5.5.5h5c.276 0 .5-.224.5-.5v-4c0-.276-.224-.5-.5-.5z" />
  <path
     style="fill:#003067;fill-opacity:1"
     id="path6"
     d="m16.25 19v.75c0 .414-.336.75-.75.75s-.75-.336-.75-.75v-.75h-1.75c-.276 0-.5.224-.5.5v4c0 .276.224.5.5.5h5c.276 0 .5-.224.5-.5v-4c0-.276-.224-.5-.5-.5z" />
  <path
     style="fill:#003067;fill-opacity:1"
     id="path8"
     d="m12.75 13v.75c0 .414-.336.75-.75.75s-.75-.336-.75-.75v-.75h-1.75c-.276 0-.5.224-.5.5v4c0 .276.224.5.5.5h5c.276 0 .5-.224.5-.5v-4c0-.276-.224-.5-.5-.5z" />
</svg>
