<?xml version="1.0" encoding="UTF-8" standalone="no"?>
<svg
   xmlns:dc="http://purl.org/dc/elements/1.1/"
   xmlns:cc="http://creativecommons.org/ns#"
   xmlns:rdf="http://www.w3.org/1999/02/22-rdf-syntax-ns#"
   xmlns:svg="http://www.w3.org/2000/svg"
   xmlns="http://www.w3.org/2000/svg"
   xmlns:sodipodi="http://sodipodi.sourceforge.net/DTD/sodipodi-0.dtd"
   xmlns:inkscape="http://www.inkscape.org/namespaces/inkscape"
   inkscape:version="1.0 (4035a4fb49, 2020-05-01)"
   sodipodi:docname="question.svg"
   xml:space="preserve"
   style="enable-background:new 0 0 28.621 28.621;"
   viewBox="0 0 28.621 28.621"
   height="28.621px"
   width="28.621px"
   y="0px"
   x="0px"
   id="Capa_1"
   version="1.1"><metadata
   id="metadata41"><rdf:RDF><cc:Work
       rdf:about=""><dc:format>image/svg+xml</dc:format><dc:type
         rdf:resource="http://purl.org/dc/dcmitype/StillImage" /></cc:Work></rdf:RDF></metadata><defs
   id="defs39" /><sodipodi:namedview
   inkscape:current-layer="Capa_1"
   inkscape:window-maximized="1"
   inkscape:window-y="-8"
   inkscape:window-x="-8"
   inkscape:cy="32.548183"
   inkscape:cx="12.774226"
   inkscape:zoom="23.758778"
   showgrid="false"
   id="namedview37"
   inkscape:window-height="847"
   inkscape:window-width="1440"
   inkscape:pageshadow="2"
   inkscape:pageopacity="0"
   guidetolerance="10"
   gridtolerance="10"
   objecttolerance="10"
   borderopacity="1"
   bordercolor="#666666"
   pagecolor="#ffffff" />
<g
   style="fill:#0095da;fill-opacity:1"
   id="g4">
	<path
   style="fill:#0095da;fill-opacity:1"
   id="path2"
   d="M14.311,0c-6.904,0-12.5,5.596-12.5,12.5c0,4.723,2.618,8.828,6.48,10.955l-0.147,5.166l5.898-3.635   C14.131,24.988,14.22,25,14.311,25c6.904,0,12.5-5.596,12.5-12.5C26.811,5.596,21.215,0,14.311,0z M13.75,20.018   c-1.116,0-1.876-0.822-1.876-1.918c0-1.119,0.779-1.92,1.876-1.92c1.14,0,1.878,0.801,1.898,1.92   C15.649,19.193,14.891,20.018,13.75,20.018z M16.301,12.173c-0.779,0.865-1.096,1.686-1.074,2.638v0.377h-2.805L12.4,14.641   c-0.063-1.074,0.295-2.173,1.246-3.31c0.673-0.803,1.223-1.477,1.223-2.194c0-0.737-0.487-1.222-1.542-1.263   c-0.693,0-1.539,0.251-2.084,0.632l-0.718-2.301c0.759-0.442,2.022-0.861,3.52-0.861c2.785,0,4.048,1.538,4.048,3.289   C18.094,10.233,17.104,11.287,16.301,12.173z" />
</g>
<g
   id="g6">
</g>
<g
   id="g8">
</g>
<g
   id="g10">
</g>
<g
   id="g12">
</g>
<g
   id="g14">
</g>
<g
   id="g16">
</g>
<g
   id="g18">
</g>
<g
   id="g20">
</g>
<g
   id="g22">
</g>
<g
   id="g24">
</g>
<g
   id="g26">
</g>
<g
   id="g28">
</g>
<g
   id="g30">
</g>
<g
   id="g32">
</g>
<g
   id="g34">
</g>
</svg>
