<?xml version="1.0" encoding="UTF-8" standalone="no"?>
<svg
   xmlns:dc="http://purl.org/dc/elements/1.1/"
   xmlns:cc="http://creativecommons.org/ns#"
   xmlns:rdf="http://www.w3.org/1999/02/22-rdf-syntax-ns#"
   xmlns:svg="http://www.w3.org/2000/svg"
   xmlns="http://www.w3.org/2000/svg"
   xmlns:sodipodi="http://sodipodi.sourceforge.net/DTD/sodipodi-0.dtd"
   xmlns:inkscape="http://www.inkscape.org/namespaces/inkscape"
   inkscape:version="1.0 (4035a4fb49, 2020-05-01)"
   sodipodi:docname="camera.svg"
   xml:space="preserve"
   style="enable-background:new 0 0 480.42 480.419;"
   viewBox="0 0 480.42 480.419"
   height="480.419px"
   width="480.42px"
   y="0px"
   x="0px"
   id="Capa_1"
   version="1.1"><metadata
   id="metadata45"><rdf:RDF><cc:Work
       rdf:about=""><dc:format>image/svg+xml</dc:format><dc:type
         rdf:resource="http://purl.org/dc/dcmitype/StillImage" /></cc:Work></rdf:RDF></metadata><defs
   id="defs43" /><sodipodi:namedview
   inkscape:current-layer="Capa_1"
   inkscape:window-maximized="1"
   inkscape:window-y="-8"
   inkscape:window-x="-8"
   inkscape:cy="462.92074"
   inkscape:cx="266.54282"
   inkscape:zoom="1.4154311"
   showgrid="false"
   id="namedview41"
   inkscape:window-height="847"
   inkscape:window-width="1440"
   inkscape:pageshadow="2"
   inkscape:pageopacity="0"
   guidetolerance="10"
   gridtolerance="10"
   objecttolerance="10"
   borderopacity="1"
   bordercolor="#666666"
   pagecolor="#ffffff" />
<g
   style="fill:#0095da;fill-opacity:1"
   id="g8">
	<g
   style="fill:#0095da;fill-opacity:1"
   id="g6">
		<path
   style="fill:#0095da;fill-opacity:1"
   id="path2"
   d="M480.42,118.575H338.09l-22.91-72.929H275.4h-70.38h-39.78l-22.91,72.929H0v316.199h480.42V118.575z M240.21,405.196    c-70.98,0-128.52-57.54-128.52-128.52c0-70.98,57.54-128.52,128.52-128.52c70.979,0,128.52,57.54,128.52,128.52    C368.729,347.656,311.189,405.196,240.21,405.196z" />
		<path
   style="fill:#0095da;fill-opacity:1"
   id="path4"
   d="M240.21,194.056c-45.557,0-82.62,37.063-82.62,82.62c0,45.558,37.063,82.62,82.62,82.62    c45.558,0,82.62-37.062,82.62-82.62C322.83,231.119,285.768,194.056,240.21,194.056z" />
	</g>
</g>
<g
   id="g10">
</g>
<g
   id="g12">
</g>
<g
   id="g14">
</g>
<g
   id="g16">
</g>
<g
   id="g18">
</g>
<g
   id="g20">
</g>
<g
   id="g22">
</g>
<g
   id="g24">
</g>
<g
   id="g26">
</g>
<g
   id="g28">
</g>
<g
   id="g30">
</g>
<g
   id="g32">
</g>
<g
   id="g34">
</g>
<g
   id="g36">
</g>
<g
   id="g38">
</g>
</svg>
