<?xml version="1.0" encoding="UTF-8" standalone="no"?>
<svg
   xmlns:dc="http://purl.org/dc/elements/1.1/"
   xmlns:cc="http://creativecommons.org/ns#"
   xmlns:rdf="http://www.w3.org/1999/02/22-rdf-syntax-ns#"
   xmlns:svg="http://www.w3.org/2000/svg"
   xmlns="http://www.w3.org/2000/svg"
   xmlns:sodipodi="http://sodipodi.sourceforge.net/DTD/sodipodi-0.dtd"
   xmlns:inkscape="http://www.inkscape.org/namespaces/inkscape"
   inkscape:version="1.0 (4035a4fb49, 2020-05-01)"
   sodipodi:docname="play.svg"
   xml:space="preserve"
   style="enable-background:new 0 0 30.051 30.051;"
   viewBox="0 0 30.051 30.051"
   y="0px"
   x="0px"
   id="Capa_1"
   version="1.1"><metadata
   id="metadata73"><rdf:RDF><cc:Work
       rdf:about=""><dc:format>image/svg+xml</dc:format><dc:type
         rdf:resource="http://purl.org/dc/dcmitype/StillImage" /></cc:Work></rdf:RDF></metadata><defs
   id="defs71" /><sodipodi:namedview
   inkscape:current-layer="Capa_1"
   inkscape:window-maximized="1"
   inkscape:window-y="-8"
   inkscape:window-x="-8"
   inkscape:cy="30.965256"
   inkscape:cx="13.412469"
   inkscape:zoom="22.628198"
   showgrid="false"
   id="namedview69"
   inkscape:window-height="847"
   inkscape:window-width="1440"
   inkscape:pageshadow="2"
   inkscape:pageopacity="0"
   guidetolerance="10"
   gridtolerance="10"
   objecttolerance="10"
   borderopacity="1"
   bordercolor="#666666"
   pagecolor="#ffffff" />
<g
   style="fill:#ffffff"
   id="g36">
	<path
   style="fill:#ffffff"
   id="path2"
   d="M19.982,14.438l-6.24-4.536c-0.229-0.166-0.533-0.191-0.784-0.062c-0.253,0.128-0.411,0.388-0.411,0.669v9.069   c0,0.284,0.158,0.543,0.411,0.671c0.107,0.054,0.224,0.081,0.342,0.081c0.154,0,0.31-0.049,0.442-0.146l6.24-4.532   c0.197-0.145,0.312-0.369,0.312-0.607C20.295,14.803,20.177,14.58,19.982,14.438z" />
	<path
   style="fill:#ffffff"
   id="path4"
   d="M15.026,0.002C6.726,0.002,0,6.728,0,15.028c0,8.297,6.726,15.021,15.026,15.021c8.298,0,15.025-6.725,15.025-15.021   C30.052,6.728,23.324,0.002,15.026,0.002z M15.026,27.542c-6.912,0-12.516-5.601-12.516-12.514c0-6.91,5.604-12.518,12.516-12.518   c6.911,0,12.514,5.607,12.514,12.518C27.541,21.941,21.937,27.542,15.026,27.542z" />
	<g
   style="fill:#ffffff"
   id="g6">
	</g>
	<g
   style="fill:#ffffff"
   id="g8">
	</g>
	<g
   style="fill:#ffffff"
   id="g10">
	</g>
	<g
   style="fill:#ffffff"
   id="g12">
	</g>
	<g
   style="fill:#ffffff"
   id="g14">
	</g>
	<g
   style="fill:#ffffff"
   id="g16">
	</g>
	<g
   style="fill:#ffffff"
   id="g18">
	</g>
	<g
   style="fill:#ffffff"
   id="g20">
	</g>
	<g
   style="fill:#ffffff"
   id="g22">
	</g>
	<g
   style="fill:#ffffff"
   id="g24">
	</g>
	<g
   style="fill:#ffffff"
   id="g26">
	</g>
	<g
   style="fill:#ffffff"
   id="g28">
	</g>
	<g
   style="fill:#ffffff"
   id="g30">
	</g>
	<g
   style="fill:#ffffff"
   id="g32">
	</g>
	<g
   style="fill:#ffffff"
   id="g34">
	</g>
</g>
<g
   id="g38">
</g>
<g
   id="g40">
</g>
<g
   id="g42">
</g>
<g
   id="g44">
</g>
<g
   id="g46">
</g>
<g
   id="g48">
</g>
<g
   id="g50">
</g>
<g
   id="g52">
</g>
<g
   id="g54">
</g>
<g
   id="g56">
</g>
<g
   id="g58">
</g>
<g
   id="g60">
</g>
<g
   id="g62">
</g>
<g
   id="g64">
</g>
<g
   id="g66">
</g>
</svg>
