<?xml version="1.0" encoding="UTF-8" standalone="no"?>
<svg
   xmlns:dc="http://purl.org/dc/elements/1.1/"
   xmlns:cc="http://creativecommons.org/ns#"
   xmlns:rdf="http://www.w3.org/1999/02/22-rdf-syntax-ns#"
   xmlns:svg="http://www.w3.org/2000/svg"
   xmlns="http://www.w3.org/2000/svg"
   xmlns:sodipodi="http://sodipodi.sourceforge.net/DTD/sodipodi-0.dtd"
   xmlns:inkscape="http://www.inkscape.org/namespaces/inkscape"
   inkscape:version="1.0 (4035a4fb49, 2020-05-01)"
   sodipodi:docname="administrativní budovy a obchodní centra.svg"
   version="1.1"
   width="512"
   viewBox="0 0 512 512"
   height="512"
   enable-background="new 0 0 512 512"
   id="Capa_1">
  <metadata
     id="metadata15">
    <rdf:RDF>
      <cc:Work
         rdf:about="">
        <dc:format>image/svg+xml</dc:format>
        <dc:type
           rdf:resource="http://purl.org/dc/dcmitype/StillImage" />
      </cc:Work>
    </rdf:RDF>
  </metadata>
  <defs
     id="defs13" />
  <sodipodi:namedview
     inkscape:current-layer="Capa_1"
     inkscape:window-maximized="1"
     inkscape:window-y="-8"
     inkscape:window-x="-8"
     inkscape:cy="314.85858"
     inkscape:cx="394.09992"
     inkscape:zoom="1.328125"
     showgrid="false"
     id="namedview11"
     inkscape:window-height="847"
     inkscape:window-width="1440"
     inkscape:pageshadow="2"
     inkscape:pageopacity="0"
     guidetolerance="10"
     gridtolerance="10"
     objecttolerance="10"
     borderopacity="1"
     bordercolor="#666666"
     pagecolor="#ffffff" />
  <g
     style="fill:#003067;fill-opacity:1"
     id="g8">
    <path
       style="fill:#003067;fill-opacity:1"
       id="path2"
       d="m213.34 274.01h155.64v-111.62c0-3.45-2.8-6.24-6.24-6.24h-78.73v47.9c0 8.28-6.72 15-15 15s-15-6.72-15-15v-47.9h-124v47.9c0 8.28-6.71 15-15 15-8.28 0-15-6.72-15-15v-47.9h-78.72c-3.45 0-6.25 2.79-6.25 6.24v343.37c0 3.44 2.8 6.24 6.25 6.24h156.37c-.37-2.06-.56-4.17-.56-6.33v-195.42c0-19.98 16.26-36.24 36.24-36.24z" />
    <path
       style="fill:#003067;fill-opacity:1"
       id="path4"
       d="m130.01 156.15c0-12.706 0-95.893 0-109.29 0-9.3 7.57-16.86 16.86-16.86h90.28c9.3 0 16.86 7.56 16.86 16.86v109.29h30c0-12.706 0-95.893 0-109.29 0-25.84-21.02-46.86-46.86-46.86h-90.28c-25.84 0-46.86 21.02-46.86 46.86v109.29z" />
    <path
       style="fill:#003067;fill-opacity:1"
       id="path6"
       d="m490.71 304.01h-277.37c-3.44 0-6.24 2.8-6.24 6.24v195.42c0 3.44 2.8 6.24 6.24 6.24h277.37c3.45 0 6.25-2.8 6.25-6.24v-195.42c0-3.44-2.8-6.24-6.25-6.24zm-52.52 101.3c0 23.23-17 42.57-39.21 46.23-2.49.42-5.05.63-7.66.63h-78.59c-25.84 0-46.86-21.02-46.86-46.86v-47.27c0-8.28 6.72-15 15-15s15 6.72 15 15v47.27c0 9.29 7.56 16.86 16.86 16.86h78.59c2.76 0 5.36-.66 7.66-1.85 5.46-2.79 9.21-8.47 9.21-15.01v-47.27c0-8.28 6.71-15 15-15 8.28 0 15 6.72 15 15z" />
  </g>
</svg>
