<?xml version="1.0" encoding="UTF-8" standalone="no"?>
<svg
   xmlns:dc="http://purl.org/dc/elements/1.1/"
   xmlns:cc="http://creativecommons.org/ns#"
   xmlns:rdf="http://www.w3.org/1999/02/22-rdf-syntax-ns#"
   xmlns:svg="http://www.w3.org/2000/svg"
   xmlns="http://www.w3.org/2000/svg"
   xmlns:sodipodi="http://sodipodi.sourceforge.net/DTD/sodipodi-0.dtd"
   xmlns:inkscape="http://www.inkscape.org/namespaces/inkscape"
   inkscape:version="1.0 (4035a4fb49, 2020-05-01)"
   sodipodi:docname="zemědělské haly a stavby.svg"
   version="1.1"
   width="512"
   viewBox="0 0 512 512"
   height="512"
   enable-background="new 0 0 512 512"
   id="Layer_1">
  <metadata
     id="metadata15">
    <rdf:RDF>
      <cc:Work
         rdf:about="">
        <dc:format>image/svg+xml</dc:format>
        <dc:type
           rdf:resource="http://purl.org/dc/dcmitype/StillImage" />
      </cc:Work>
    </rdf:RDF>
  </metadata>
  <defs
     id="defs13" />
  <sodipodi:namedview
     inkscape:current-layer="Layer_1"
     inkscape:window-maximized="1"
     inkscape:window-y="-8"
     inkscape:window-x="-8"
     inkscape:cy="815.16796"
     inkscape:cx="273.72208"
     inkscape:zoom="1.328125"
     showgrid="false"
     id="namedview11"
     inkscape:window-height="847"
     inkscape:window-width="1440"
     inkscape:pageshadow="2"
     inkscape:pageopacity="0"
     guidetolerance="10"
     gridtolerance="10"
     objecttolerance="10"
     borderopacity="1"
     bordercolor="#666666"
     pagecolor="#ffffff" />
  <g
     style="fill:#003067;fill-opacity:1"
     id="g8">
    <path
       style="fill:#003067;fill-opacity:1"
       id="path2"
       d="m497 0h-48.229c-42.935 0-84.816 8.328-124.481 24.753-29.211 12.096-56.156 28.161-80.46 47.902 17.782 36.505 27.232 76.864 27.317 118.691.038 18.705-1.803 37.122-5.43 55.038 17.896-3.65 36.165-5.507 54.676-5.507 41.892 0 82.336 9.431 118.935 27.257 19.739-24.294 35.802-51.226 47.899-80.422 16.438-39.671 24.773-81.561 24.773-124.504v-48.208c0-8.284-6.715-15-15-15zm-161.307 90.69c-5.857-5.857-5.858-15.355-.001-21.213s15.354-5.858 21.214-.001l16.092 16.091c5.857 5.857 5.858 15.355.001 21.213s-15.354 5.858-21.214.001zm66.141 126.246c-5.857 5.858-15.354 5.858-21.214.001l-16.092-16.091c-5.857-5.857-5.858-15.355-.001-21.213s15.354-5.858 21.214-.001l16.092 16.091c5.857 5.857 5.858 15.355.001 21.213zm54.146-123.641c-5.857 5.858-15.354 5.858-21.214.001l-16.092-16.09c-5.857-5.857-5.858-15.355-.001-21.213s15.354-5.858 21.214-.001l16.092 16.09c5.858 5.858 5.859 15.355.001 21.213z" />
    <path
       style="fill:#003067;fill-opacity:1"
       id="path4"
       d="m232.731 255.314c21.967-81.22.829-171.469-62.495-234.786-9.993-10-16.145-16.142-16.145-16.142-2.715-2.71-6.463-4.386-10.598-4.386-6.068 0-11.54 3.657-13.86 9.265-2.267 5.477-1.091 11.76 2.965 16.045.098.103.197.205.297.306 29.714 29.709 29.673 77.746-.001 107.416l-14.919 14.917c-81.487 81.478-117.975 186.679-117.975 284.777v15.634l127.763-127.77c39.792-39.793 81.281-57.235 104.968-65.276z" />
    <path
       style="fill:#003067;fill-opacity:1"
       id="path6"
       d="m507.599 357.852-16.068-16.067c-95.12-95.105-248.559-93.983-342.553.018l-144.584 144.591c-4.29 4.29-5.573 10.742-3.252 16.347 2.322 5.604 7.791 9.259 13.858 9.259h64.282c115.239 0 215.434-48.594 284.807-117.959l14.975-14.972c29.674-29.656 77.612-29.632 107.26-.065l.071.071c5.857 5.858 15.352 5.854 21.209-.005 5.854-5.856 5.853-15.352.002-21.209z" />
  </g>
</svg>
