<?xml version="1.0" encoding="UTF-8" standalone="no"?>
<svg
   xmlns:dc="http://purl.org/dc/elements/1.1/"
   xmlns:cc="http://creativecommons.org/ns#"
   xmlns:rdf="http://www.w3.org/1999/02/22-rdf-syntax-ns#"
   xmlns:svg="http://www.w3.org/2000/svg"
   xmlns="http://www.w3.org/2000/svg"
   xmlns:sodipodi="http://sodipodi.sourceforge.net/DTD/sodipodi-0.dtd"
   xmlns:inkscape="http://www.inkscape.org/namespaces/inkscape"
   inkscape:version="1.0 (4035a4fb49, 2020-05-01)"
   sodipodi:docname="opláštění hal.svg"
   id="svg12"
   version="1.1"
   width="512pt"
   viewBox="0 0 512 512"
   height="512pt">
  <metadata
     id="metadata18">
    <rdf:RDF>
      <cc:Work
         rdf:about="">
        <dc:format>image/svg+xml</dc:format>
        <dc:type
           rdf:resource="http://purl.org/dc/dcmitype/StillImage" />
      </cc:Work>
    </rdf:RDF>
  </metadata>
  <defs
     id="defs16" />
  <sodipodi:namedview
     inkscape:current-layer="svg12"
     inkscape:window-maximized="1"
     inkscape:window-y="-8"
     inkscape:window-x="-8"
     inkscape:cy="398.60593"
     inkscape:cx="304.6902"
     inkscape:zoom="0.99609375"
     showgrid="false"
     id="namedview14"
     inkscape:window-height="847"
     inkscape:window-width="1440"
     inkscape:pageshadow="2"
     inkscape:pageopacity="0"
     guidetolerance="10"
     gridtolerance="10"
     objecttolerance="10"
     borderopacity="1"
     bordercolor="#666666"
     pagecolor="#ffffff" />
  <path
     style="fill:#003067;fill-opacity:1"
     id="path2"
     d="m229.609375 427.398438h-61.816406c-6.292969 0-11.394531 5.101562-11.394531 11.390624v61.820313c0 6.289063 5.101562 11.390625 11.394531 11.390625h61.816406c6.289063 0 11.390625-5.101562 11.390625-11.390625v-61.820313c0-6.289062-5.101562-11.390624-11.390625-11.390624zm0 0" />
  <path
     style="fill:#003067;fill-opacity:1"
     id="path4"
     d="m344.207031 427.398438h-61.816406c-6.289063 0-11.390625 5.101562-11.390625 11.390624v61.820313c0 6.289063 5.101562 11.390625 11.390625 11.390625h61.816406c6.292969 0 11.390625-5.101562 11.390625-11.390625v-61.820313c0-6.289062-5.097656-11.390624-11.390625-11.390624zm0 0" />
  <path
     style="fill:#003067;fill-opacity:1"
     id="path6"
     d="m298.300781 389.207031v-61.816406c0-6.289063-5.101562-11.390625-11.390625-11.390625h-61.816406c-6.292969 0-11.390625 5.101562-11.390625 11.390625v61.816406c0 6.292969 5.097656 11.390625 11.390625 11.390625h61.816406c6.289063.003906 11.390625-5.097656 11.390625-11.390625zm0 0" />
  <path
     style="fill:#003067;fill-opacity:1"
     id="path8"
     d="m473.074219 211.3125-208.867188-136.566406c-4.988281-3.261719-11.429687-3.261719-16.417969 0l-208.863281 136.566406c-4.238281 2.773438-6.792969 7.492188-6.792969 12.554688v273.132812c0 8.285156 6.714844 15 15 15h64.265626c8.285156 0 15-6.714844 15-15v-242.066406h259.199218v242.066406c0 8.285156 6.71875 15 15 15h64.269532c8.28125 0 15-6.714844 15-15v-273.132812c0-5.0625-2.554688-9.785157-6.792969-12.554688zm0 0" />
  <path
     style="fill:#003067;fill-opacity:1"
     id="path10"
     d="m511.707031 172.726562c-.777343-3.902343-3.078125-7.332031-6.386719-9.539062l-241-160.667969c-2.519531-1.675781-5.421874-2.51562475-8.320312-2.51562475v-.00390625c-2.898438 0-5.800781.839844-8.320312 2.519531l-241 160.667969c-3.308594 2.207031-5.605469 5.636719-6.386719 9.539062-.78125 3.898438.019531 7.953126 2.226562 11.261719l8.601563 12.902344c3.101562-4.128906 6.917968-7.765625 11.386718-10.6875l208.863282-136.566406c14.964844-9.777344 34.292968-9.777344 49.25-.003907l208.871094 136.570313c4.464843 2.921875 8.285156 6.554687 11.386718 10.6875l8.601563-12.902344c2.207031-3.308593 3.007812-7.359375 2.226562-11.261719zm0 0" />
</svg>
