<?xml version="1.0" encoding="UTF-8" standalone="no"?>
<svg
   xmlns:dc="http://purl.org/dc/elements/1.1/"
   xmlns:cc="http://creativecommons.org/ns#"
   xmlns:rdf="http://www.w3.org/1999/02/22-rdf-syntax-ns#"
   xmlns:svg="http://www.w3.org/2000/svg"
   xmlns="http://www.w3.org/2000/svg"
   xmlns:sodipodi="http://sodipodi.sourceforge.net/DTD/sodipodi-0.dtd"
   xmlns:inkscape="http://www.inkscape.org/namespaces/inkscape"
   inkscape:version="1.0 (4035a4fb49, 2020-05-01)"
   sodipodi:docname="autosalony.svg"
   xml:space="preserve"
   style="enable-background:new 0 0 283.219 283.219;"
   viewBox="0 0 283.219 283.219"
   height="283.219px"
   width="283.219px"
   y="0px"
   x="0px"
   id="Capa_1"
   version="1.1"><metadata
   id="metadata45"><rdf:RDF><cc:Work
       rdf:about=""><dc:format>image/svg+xml</dc:format><dc:type
         rdf:resource="http://purl.org/dc/dcmitype/StillImage" /></cc:Work></rdf:RDF></metadata><defs
   id="defs43" /><sodipodi:namedview
   inkscape:current-layer="Capa_1"
   inkscape:window-maximized="1"
   inkscape:window-y="-8"
   inkscape:window-x="-8"
   inkscape:cy="392.42736"
   inkscape:cx="191.2228"
   inkscape:zoom="2.4009689"
   showgrid="false"
   id="namedview41"
   inkscape:window-height="847"
   inkscape:window-width="1440"
   inkscape:pageshadow="2"
   inkscape:pageopacity="0"
   guidetolerance="10"
   gridtolerance="10"
   objecttolerance="10"
   borderopacity="1"
   bordercolor="#666666"
   pagecolor="#ffffff" />
<g
   style="fill:#003067;fill-opacity:1"
   id="g8">
	<g
   style="fill:#003067;fill-opacity:1"
   id="g6">
		<path
   style="fill:#003067;fill-opacity:1"
   id="path2"
   d="M21.694,130.404l116.892-69.822l123.22,69.98c2.236,1.271,4.667,1.874,7.062,1.874c4.989,0,9.843-2.611,12.479-7.26    c3.911-6.882,1.498-15.637-5.386-19.548L145.483,31.525c-4.494-2.553-10.008-2.49-14.435,0.159L6.988,105.788    c-6.8,4.063-9.017,12.865-4.957,19.66C6.094,132.25,14.903,134.458,21.694,130.404z" />
		<path
   style="fill:#003067;fill-opacity:1"
   id="path4"
   d="M65.359,233.852c0,10.889,8.823,19.714,19.714,19.714c10.883,0,19.704-8.825,19.704-19.714h69.708    c0,10.889,8.825,19.714,19.704,19.714c10.893,0,19.714-8.825,19.714-19.714h10.547c10.558,0,19.117-8.56,19.117-19.116v-29.37    c0-10.557-6.758-19.116-15.089-19.116h-15.094l-16.638-40.501c-4.005-9.763-15.816-17.681-26.374-17.681h-59.983    c-10.557,0-22.367,7.917-26.381,17.681L67.377,166.25c0,0-6.21,0-13.861,0c-7.654,0-13.859,8.56-13.859,19.116v29.37    c0,10.557,8.559,19.116,19.116,19.116H65.359z M201.054,179.392c9.903,0,17.922,8.027,17.922,17.922    c0,9.898-8.019,17.922-17.922,17.922c-9.895,0-17.922-8.023-17.922-17.922C183.132,187.419,191.16,179.392,201.054,179.392z     M96.08,154.339l5.701-16.001c2.653-7.46,11.222-13.507,19.145-13.507h38.224c7.915,0,16.465,6.056,19.098,13.525l5.614,15.959    c2.632,7.472-1.657,13.525-9.582,13.525H105.61C97.695,167.841,93.427,161.797,96.08,154.339z M82.135,179.392    c9.901,0,17.921,8.027,17.921,17.922c0,9.898-8.021,17.922-17.921,17.922c-9.895,0-17.922-8.023-17.922-17.922    C64.213,187.419,72.24,179.392,82.135,179.392z" />
	</g>
</g>
<g
   id="g10">
</g>
<g
   id="g12">
</g>
<g
   id="g14">
</g>
<g
   id="g16">
</g>
<g
   id="g18">
</g>
<g
   id="g20">
</g>
<g
   id="g22">
</g>
<g
   id="g24">
</g>
<g
   id="g26">
</g>
<g
   id="g28">
</g>
<g
   id="g30">
</g>
<g
   id="g32">
</g>
<g
   id="g34">
</g>
<g
   id="g36">
</g>
<g
   id="g38">
</g>
</svg>
